<svg width="491" height="491" viewBox="0 0 491 491" fill="none" xmlns="http://www.w3.org/2000/svg">
<path d="M245.334 0C380.828 0 490.667 109.839 490.667 245.333C490.667 380.827 380.828 490.666 245.334 490.666C109.84 490.666 0.00100708 380.827 0.00100708 245.333C0.153007 109.903 109.903 0.153 245.334 0Z" fill="#009688"/>
<path d="M200.534 104.533C219.673 86.244 249.811 86.244 268.95 104.533C287.843 123.414 287.852 154.036 268.971 172.928C268.964 172.935 268.957 172.942 268.95 172.949L249.75 192.149H373.334C402.789 192.149 426.667 216.027 426.667 245.483C426.667 274.938 402.789 298.816 373.334 298.816H249.75L268.95 318.016C286.472 338.191 284.321 368.75 264.146 386.273C245.887 402.131 218.723 402.072 200.534 386.134L82.283 267.883C69.791 255.387 69.791 235.131 82.283 222.635L200.534 104.533Z" fill="#FAFAFA"/>
</svg>
