<svg width="1356" height="464" viewBox="0 0 1356 464" fill="none" xmlns="http://www.w3.org/2000/svg">
<ellipse cx="790.5" cy="116" rx="58.5" ry="48" fill="#2B7A78"/>
<ellipse cx="955.5" cy="257" rx="58.5" ry="48" fill="#2B7A78"/>
<ellipse cx="1143.5" cy="368" rx="58.5" ry="48" fill="#2B7A78"/>
<ellipse cx="1297.5" cy="230" rx="58.5" ry="48" fill="#2B7A78"/>
<path d="M784.283 128H766.74V124.52L775.02 115.695C776.156 114.453 776.994 113.369 777.533 112.443C778.084 111.518 778.359 110.639 778.359 109.807C778.359 108.67 778.072 107.779 777.498 107.135C776.924 106.479 776.104 106.15 775.037 106.15C773.889 106.15 772.98 106.549 772.312 107.346C771.656 108.131 771.328 109.168 771.328 110.457H766.23C766.23 108.898 766.6 107.475 767.338 106.186C768.088 104.896 769.143 103.889 770.502 103.162C771.861 102.424 773.402 102.055 775.125 102.055C777.762 102.055 779.807 102.688 781.26 103.953C782.725 105.219 783.457 107.006 783.457 109.314C783.457 110.58 783.129 111.869 782.473 113.182C781.816 114.494 780.691 116.023 779.098 117.77L773.279 123.904H784.283V128ZM787.887 125.504C787.887 124.695 788.156 124.039 788.695 123.535C789.246 123.031 789.932 122.779 790.752 122.779C791.584 122.779 792.27 123.031 792.809 123.535C793.359 124.039 793.635 124.695 793.635 125.504C793.635 126.301 793.365 126.951 792.826 127.455C792.287 127.947 791.596 128.193 790.752 128.193C789.92 128.193 789.234 127.947 788.695 127.455C788.156 126.951 787.887 126.301 787.887 125.504ZM815.115 117.418C815.115 120.957 814.383 123.664 812.918 125.539C811.453 127.414 809.309 128.352 806.484 128.352C803.695 128.352 801.562 127.432 800.086 125.592C798.609 123.752 797.854 121.115 797.818 117.682V112.971C797.818 109.396 798.557 106.684 800.033 104.832C801.521 102.98 803.66 102.055 806.449 102.055C809.238 102.055 811.371 102.975 812.848 104.814C814.324 106.643 815.08 109.273 815.115 112.707V117.418ZM810.035 112.25C810.035 110.129 809.742 108.588 809.156 107.627C808.582 106.654 807.68 106.168 806.449 106.168C805.254 106.168 804.369 106.631 803.795 107.557C803.232 108.471 802.934 109.906 802.898 111.863V118.086C802.898 120.172 803.18 121.725 803.742 122.744C804.316 123.752 805.23 124.256 806.484 124.256C807.727 124.256 808.623 123.77 809.174 122.797C809.725 121.824 810.012 120.336 810.035 118.332V112.25Z" fill="white"/>
<path d="M949.283 269H931.74V265.52L940.02 256.695C941.156 255.453 941.994 254.369 942.533 253.443C943.084 252.518 943.359 251.639 943.359 250.807C943.359 249.67 943.072 248.779 942.498 248.135C941.924 247.479 941.104 247.15 940.037 247.15C938.889 247.15 937.98 247.549 937.312 248.346C936.656 249.131 936.328 250.168 936.328 251.457H931.23C931.23 249.898 931.6 248.475 932.338 247.186C933.088 245.896 934.143 244.889 935.502 244.162C936.861 243.424 938.402 243.055 940.125 243.055C942.762 243.055 944.807 243.688 946.26 244.953C947.725 246.219 948.457 248.006 948.457 250.314C948.457 251.58 948.129 252.869 947.473 254.182C946.816 255.494 945.691 257.023 944.098 258.77L938.279 264.904H949.283V269ZM952.887 266.504C952.887 265.695 953.156 265.039 953.695 264.535C954.246 264.031 954.932 263.779 955.752 263.779C956.584 263.779 957.27 264.031 957.809 264.535C958.359 265.039 958.635 265.695 958.635 266.504C958.635 267.301 958.365 267.951 957.826 268.455C957.287 268.947 956.596 269.193 955.752 269.193C954.92 269.193 954.234 268.947 953.695 268.455C953.156 267.951 952.887 267.301 952.887 266.504ZM975.229 269H970.148V249.418L964.084 251.299V247.168L974.684 243.371H975.229V269Z" fill="white"/>
<path d="M1291.28 242H1273.74V238.52L1282.02 229.695C1283.16 228.453 1283.99 227.369 1284.53 226.443C1285.08 225.518 1285.36 224.639 1285.36 223.807C1285.36 222.67 1285.07 221.779 1284.5 221.135C1283.92 220.479 1283.1 220.15 1282.04 220.15C1280.89 220.15 1279.98 220.549 1279.31 221.346C1278.66 222.131 1278.33 223.168 1278.33 224.457H1273.23C1273.23 222.898 1273.6 221.475 1274.34 220.186C1275.09 218.896 1276.14 217.889 1277.5 217.162C1278.86 216.424 1280.4 216.055 1282.12 216.055C1284.76 216.055 1286.81 216.688 1288.26 217.953C1289.72 219.219 1290.46 221.006 1290.46 223.314C1290.46 224.58 1290.13 225.869 1289.47 227.182C1288.82 228.494 1287.69 230.023 1286.1 231.77L1280.28 237.904H1291.28V242ZM1294.89 239.504C1294.89 238.695 1295.16 238.039 1295.7 237.535C1296.25 237.031 1296.93 236.779 1297.75 236.779C1298.58 236.779 1299.27 237.031 1299.81 237.535C1300.36 238.039 1300.63 238.695 1300.63 239.504C1300.63 240.301 1300.37 240.951 1299.83 241.455C1299.29 241.947 1298.6 242.193 1297.75 242.193C1296.92 242.193 1296.23 241.947 1295.7 241.455C1295.16 240.951 1294.89 240.301 1294.89 239.504ZM1310.06 226.953H1312.76C1314.05 226.953 1315.01 226.631 1315.63 225.986C1316.25 225.342 1316.56 224.486 1316.56 223.42C1316.56 222.389 1316.25 221.586 1315.63 221.012C1315.02 220.438 1314.18 220.15 1313.1 220.15C1312.12 220.15 1311.31 220.42 1310.65 220.959C1310 221.486 1309.67 222.178 1309.67 223.033H1304.59C1304.59 221.697 1304.95 220.502 1305.66 219.447C1306.39 218.381 1307.4 217.549 1308.69 216.951C1309.99 216.354 1311.42 216.055 1312.97 216.055C1315.68 216.055 1317.8 216.705 1319.34 218.006C1320.87 219.295 1321.64 221.076 1321.64 223.35C1321.64 224.521 1321.28 225.6 1320.57 226.584C1319.85 227.568 1318.92 228.324 1317.76 228.852C1319.2 229.367 1320.27 230.141 1320.97 231.172C1321.69 232.203 1322.04 233.422 1322.04 234.828C1322.04 237.102 1321.21 238.924 1319.55 240.295C1317.9 241.666 1315.71 242.352 1312.97 242.352C1310.42 242.352 1308.33 241.678 1306.7 240.33C1305.08 238.982 1304.27 237.201 1304.27 234.986H1309.35C1309.35 235.947 1309.71 236.732 1310.43 237.342C1311.15 237.951 1312.04 238.256 1313.1 238.256C1314.3 238.256 1315.25 237.939 1315.93 237.307C1316.62 236.662 1316.96 235.812 1316.96 234.758C1316.96 232.203 1315.56 230.926 1312.75 230.926H1310.06V226.953Z" fill="white"/>
<line x1="830.454" y1="140.385" x2="920.454" y2="226.385" stroke="#2B7A78" stroke-width="10"/>
<path d="M995.5 285L1098.5 363" stroke="#2B7A78" stroke-width="10"/>
<line y1="-5" x2="119.817" y2="-5" transform="matrix(0.708272 -0.70594 -0.70594 -0.708272 1179 341.583)" stroke="#2B7A78" stroke-width="10"/>
<path d="M686.866 42H680.274V10.0078H686.866V42ZM698.423 18.2256L698.621 20.9722C700.32 18.8481 702.598 17.7861 705.455 17.7861C707.974 17.7861 709.849 18.5259 711.08 20.0054C712.31 21.4849 712.94 23.6968 712.969 26.6411V42H706.619V26.7949C706.619 25.4473 706.326 24.4731 705.74 23.8726C705.154 23.2573 704.18 22.9497 702.818 22.9497C701.031 22.9497 699.69 23.7114 698.797 25.2349V42H692.447V18.2256H698.423ZM726.702 34.2437L731.119 18.2256H737.754L729.734 42H723.67L715.65 18.2256H722.286L726.702 34.2437ZM751.202 42.4395C747.715 42.4395 744.874 41.3701 742.676 39.2314C740.494 37.0928 739.402 34.2437 739.402 30.6841V30.0688C739.402 27.6812 739.864 25.5498 740.787 23.6748C741.709 21.7852 743.013 20.335 744.698 19.3242C746.397 18.2988 748.331 17.7861 750.499 17.7861C753.75 17.7861 756.307 18.8115 758.167 20.8623C760.042 22.9131 760.979 25.8208 760.979 29.5854V32.1782H745.84C746.045 33.731 746.661 34.9761 747.686 35.9136C748.726 36.8511 750.037 37.3198 751.619 37.3198C754.065 37.3198 755.977 36.4336 757.354 34.6611L760.474 38.1548C759.522 39.5024 758.233 40.5571 756.607 41.3188C754.981 42.0659 753.179 42.4395 751.202 42.4395ZM750.477 22.9277C749.217 22.9277 748.191 23.3525 747.4 24.2021C746.624 25.0518 746.126 26.2676 745.906 27.8496H754.739V27.3442C754.71 25.938 754.329 24.854 753.597 24.0923C752.864 23.3159 751.824 22.9277 750.477 22.9277ZM777.481 35.4302C777.481 34.6538 777.093 34.0459 776.316 33.6064C775.555 33.1523 774.324 32.7495 772.625 32.3979C766.971 31.2114 764.144 28.8091 764.144 25.1909C764.144 23.0815 765.015 21.3237 766.758 19.9175C768.516 18.4966 770.809 17.7861 773.636 17.7861C776.653 17.7861 779.063 18.4966 780.865 19.9175C782.681 21.3384 783.589 23.1841 783.589 25.4546H777.239C777.239 24.5464 776.946 23.7993 776.36 23.2134C775.774 22.6128 774.859 22.3125 773.614 22.3125C772.544 22.3125 771.717 22.5542 771.131 23.0376C770.545 23.521 770.252 24.1362 770.252 24.8833C770.252 25.5864 770.582 26.1577 771.241 26.5972C771.915 27.022 773.042 27.3955 774.625 27.7178C776.207 28.0254 777.54 28.377 778.624 28.7725C781.978 30.0029 783.655 32.1343 783.655 35.1665C783.655 37.3345 782.725 39.0923 780.865 40.4399C779.004 41.7729 776.602 42.4395 773.658 42.4395C771.666 42.4395 769.893 42.0879 768.34 41.3848C766.802 40.667 765.594 39.6929 764.715 38.4624C763.836 37.2173 763.396 35.877 763.396 34.4414H769.417C769.476 35.5693 769.893 36.4336 770.669 37.0342C771.446 37.6348 772.486 37.9351 773.79 37.9351C775.005 37.9351 775.921 37.708 776.536 37.2539C777.166 36.7852 777.481 36.1772 777.481 35.4302ZM795.367 12.3809V18.2256H799.432V22.8838H795.367V34.749C795.367 35.6279 795.535 36.2578 795.872 36.6387C796.209 37.0195 796.854 37.21 797.806 37.21C798.509 37.21 799.131 37.1587 799.673 37.0562V41.8682C798.428 42.249 797.146 42.4395 795.828 42.4395C791.375 42.4395 789.104 40.1909 789.017 35.6938V22.8838H785.545V18.2256H789.017V12.3809H795.367ZM808.924 18.2256L809.122 20.8843C810.806 18.8188 813.084 17.7861 815.955 17.7861C819.017 17.7861 821.119 18.9946 822.261 21.4116C823.931 18.9946 826.312 17.7861 829.402 17.7861C831.98 17.7861 833.899 18.5405 835.159 20.0493C836.419 21.5435 837.049 23.7993 837.049 26.8169V42H830.677V26.8389C830.677 25.4912 830.413 24.5098 829.886 23.8945C829.358 23.2646 828.428 22.9497 827.095 22.9497C825.191 22.9497 823.873 23.8579 823.14 25.6743L823.162 42H816.812V26.8608C816.812 25.4839 816.541 24.4878 815.999 23.8726C815.457 23.2573 814.534 22.9497 813.23 22.9497C811.429 22.9497 810.125 23.6968 809.319 25.1909V42H802.969V18.2256H808.924ZM852.891 42.4395C849.405 42.4395 846.563 41.3701 844.366 39.2314C842.183 37.0928 841.092 34.2437 841.092 30.6841V30.0688C841.092 27.6812 841.553 25.5498 842.476 23.6748C843.399 21.7852 844.703 20.335 846.387 19.3242C848.086 18.2988 850.02 17.7861 852.188 17.7861C855.44 17.7861 857.996 18.8115 859.856 20.8623C861.731 22.9131 862.669 25.8208 862.669 29.5854V32.1782H847.53C847.735 33.731 848.35 34.9761 849.375 35.9136C850.416 36.8511 851.727 37.3198 853.309 37.3198C855.755 37.3198 857.667 36.4336 859.043 34.6611L862.164 38.1548C861.211 39.5024 859.922 40.5571 858.296 41.3188C856.67 42.0659 854.869 42.4395 852.891 42.4395ZM852.166 22.9277C850.906 22.9277 849.881 23.3525 849.09 24.2021C848.313 25.0518 847.815 26.2676 847.596 27.8496H856.429V27.3442C856.399 25.938 856.019 24.854 855.286 24.0923C854.554 23.3159 853.514 22.9277 852.166 22.9277ZM872.139 18.2256L872.337 20.9722C874.036 18.8481 876.314 17.7861 879.17 17.7861C881.69 17.7861 883.565 18.5259 884.795 20.0054C886.026 21.4849 886.656 23.6968 886.685 26.6411V42H880.335V26.7949C880.335 25.4473 880.042 24.4731 879.456 23.8726C878.87 23.2573 877.896 22.9497 876.534 22.9497C874.747 22.9497 873.406 23.7114 872.513 25.2349V42H866.163V18.2256H872.139ZM899.122 12.3809V18.2256H903.187V22.8838H899.122V34.749C899.122 35.6279 899.29 36.2578 899.627 36.6387C899.964 37.0195 900.608 37.21 901.561 37.21C902.264 37.21 902.886 37.1587 903.428 37.0562V41.8682C902.183 42.249 900.901 42.4395 899.583 42.4395C895.13 42.4395 892.859 40.1909 892.771 35.6938V22.8838H889.3V18.2256H892.771V12.3809H899.122Z" fill="#17252A"/>
<path d="M19.4458 444.606C19.4458 443.361 19.0063 442.409 18.1274 441.75C17.2485 441.076 15.6665 440.373 13.3813 439.641C11.0962 438.894 9.28711 438.161 7.9541 437.443C4.32129 435.48 2.50488 432.836 2.50488 429.511C2.50488 427.783 2.98828 426.245 3.95508 424.897C4.93652 423.535 6.33545 422.473 8.15186 421.711C9.98291 420.949 12.0337 420.568 14.3042 420.568C16.5894 420.568 18.6255 420.986 20.4126 421.821C22.1997 422.641 23.584 423.806 24.5654 425.314C25.5615 426.823 26.0596 428.537 26.0596 430.456H19.4678C19.4678 428.991 19.0063 427.856 18.0835 427.05C17.1606 426.23 15.8643 425.82 14.1943 425.82C12.583 425.82 11.3306 426.164 10.437 426.853C9.54346 427.526 9.09668 428.42 9.09668 429.533C9.09668 430.573 9.6167 431.445 10.6567 432.148C11.7114 432.851 13.2568 433.51 15.293 434.125C19.043 435.253 21.7749 436.652 23.4888 438.322C25.2026 439.992 26.0596 442.072 26.0596 444.562C26.0596 447.331 25.0122 449.506 22.9175 451.088C20.8228 452.656 18.0029 453.439 14.458 453.439C11.9971 453.439 9.75586 452.993 7.73438 452.099C5.71289 451.191 4.16748 449.953 3.09814 448.386C2.04346 446.818 1.51611 445.002 1.51611 442.937H8.12988C8.12988 446.467 10.2393 448.232 14.458 448.232C16.0254 448.232 17.2485 447.917 18.1274 447.287C19.0063 446.643 19.4458 445.749 19.4458 444.606ZM43.9014 453C43.6084 452.429 43.396 451.718 43.2642 450.869C41.7261 452.583 39.7266 453.439 37.2656 453.439C34.9365 453.439 33.0029 452.766 31.4648 451.418C29.9414 450.07 29.1797 448.371 29.1797 446.32C29.1797 443.801 30.1099 441.867 31.9702 440.52C33.8452 439.172 36.5479 438.491 40.0781 438.476H43.0005V437.114C43.0005 436.015 42.7148 435.136 42.1436 434.477C41.5869 433.818 40.7007 433.488 39.4849 433.488C38.4155 433.488 37.5732 433.745 36.958 434.257C36.3574 434.77 36.0571 435.473 36.0571 436.367H29.707C29.707 434.99 30.1318 433.715 30.9814 432.543C31.8311 431.372 33.0322 430.456 34.585 429.797C36.1377 429.123 37.8809 428.786 39.8145 428.786C42.7441 428.786 45.0659 429.526 46.7798 431.005C48.5083 432.47 49.3726 434.536 49.3726 437.202V447.507C49.3872 449.763 49.7021 451.469 50.3174 452.626V453H43.9014ZM38.6499 448.583C39.5874 448.583 40.4517 448.378 41.2427 447.968C42.0337 447.543 42.6196 446.979 43.0005 446.276V442.189H40.6274C37.4487 442.189 35.7568 443.288 35.5518 445.485L35.5298 445.859C35.5298 446.65 35.8081 447.302 36.3647 447.814C36.9214 448.327 37.6831 448.583 38.6499 448.583ZM62.7979 445.244L67.2144 429.226H73.8501L65.8301 453H59.7656L51.7456 429.226H58.3813L62.7979 445.244ZM83.3643 453H76.9922V429.226H83.3643V453ZM76.6187 423.073C76.6187 422.121 76.9336 421.337 77.5635 420.722C78.208 420.107 79.0796 419.799 80.1782 419.799C81.2622 419.799 82.1265 420.107 82.771 420.722C83.4155 421.337 83.7378 422.121 83.7378 423.073C83.7378 424.04 83.4082 424.831 82.749 425.446C82.1045 426.062 81.2476 426.369 80.1782 426.369C79.1089 426.369 78.2446 426.062 77.5854 425.446C76.9409 424.831 76.6187 424.04 76.6187 423.073ZM94.4604 429.226L94.6582 431.972C96.3574 429.848 98.6353 428.786 101.492 428.786C104.011 428.786 105.886 429.526 107.117 431.005C108.347 432.485 108.977 434.697 109.006 437.641V453H102.656V437.795C102.656 436.447 102.363 435.473 101.777 434.873C101.191 434.257 100.217 433.95 98.855 433.95C97.0679 433.95 95.7275 434.711 94.834 436.235V453H88.4839V429.226H94.4604ZM112.917 440.937C112.917 437.29 113.782 434.353 115.51 432.126C117.253 429.899 119.597 428.786 122.542 428.786C125.149 428.786 127.178 429.68 128.628 431.467L128.892 429.226H134.648V452.209C134.648 454.289 134.172 456.098 133.22 457.636C132.283 459.174 130.957 460.346 129.243 461.152C127.529 461.958 125.522 462.36 123.223 462.36C121.479 462.36 119.78 462.009 118.125 461.306C116.47 460.617 115.217 459.724 114.368 458.625L117.18 454.758C118.762 456.53 120.681 457.417 122.937 457.417C124.622 457.417 125.933 456.962 126.87 456.054C127.808 455.161 128.276 453.886 128.276 452.231V450.957C126.812 452.612 124.885 453.439 122.498 453.439C119.641 453.439 117.327 452.326 115.554 450.1C113.796 447.858 112.917 444.892 112.917 441.201V440.937ZM119.268 441.398C119.268 443.552 119.7 445.244 120.564 446.474C121.428 447.69 122.615 448.298 124.124 448.298C126.057 448.298 127.441 447.573 128.276 446.123V436.125C127.427 434.675 126.057 433.95 124.167 433.95C122.644 433.95 121.443 434.572 120.564 435.817C119.7 437.062 119.268 438.923 119.268 441.398Z" fill="#17252A"/>
<ellipse cx="68.5" cy="353" rx="58.5" ry="48" fill="#17252A"/>
<path d="M57.0801 365H52V345.418L45.9355 347.299V343.168L56.5352 339.371H57.0801V365ZM65.8867 362.504C65.8867 361.695 66.1562 361.039 66.6953 360.535C67.2461 360.031 67.9316 359.779 68.752 359.779C69.584 359.779 70.2695 360.031 70.8086 360.535C71.3594 361.039 71.6348 361.695 71.6348 362.504C71.6348 363.301 71.3652 363.951 70.8262 364.455C70.2871 364.947 69.5957 365.193 68.752 365.193C67.9199 365.193 67.2344 364.947 66.6953 364.455C66.1562 363.951 65.8867 363.301 65.8867 362.504ZM93.1152 354.418C93.1152 357.957 92.3828 360.664 90.918 362.539C89.4531 364.414 87.3086 365.352 84.4844 365.352C81.6953 365.352 79.5625 364.432 78.0859 362.592C76.6094 360.752 75.8535 358.115 75.8184 354.682V349.971C75.8184 346.396 76.5566 343.684 78.0332 341.832C79.5215 339.98 81.6602 339.055 84.4492 339.055C87.2383 339.055 89.3711 339.975 90.8477 341.814C92.3242 343.643 93.0801 346.273 93.1152 349.707V354.418ZM88.0352 349.25C88.0352 347.129 87.7422 345.588 87.1562 344.627C86.582 343.654 85.6797 343.168 84.4492 343.168C83.2539 343.168 82.3691 343.631 81.7949 344.557C81.2324 345.471 80.9336 346.906 80.8984 348.863V355.086C80.8984 357.172 81.1797 358.725 81.7422 359.744C82.3164 360.752 83.2305 361.256 84.4844 361.256C85.7266 361.256 86.623 360.77 87.1738 359.797C87.7246 358.824 88.0117 357.336 88.0352 355.332V349.25Z" fill="white"/>
<ellipse cx="228.5" cy="245" rx="58.5" ry="48" fill="#17252A"/>
<ellipse cx="436.5" cy="341" rx="58.5" ry="48" fill="#17252A"/>
<path d="M425.08 353H420V333.418L413.936 335.299V331.168L424.535 327.371H425.08V353ZM433.887 350.504C433.887 349.695 434.156 349.039 434.695 348.535C435.246 348.031 435.932 347.779 436.752 347.779C437.584 347.779 438.27 348.031 438.809 348.535C439.359 349.039 439.635 349.695 439.635 350.504C439.635 351.301 439.365 351.951 438.826 352.455C438.287 352.947 437.596 353.193 436.752 353.193C435.92 353.193 435.234 352.947 434.695 352.455C434.156 351.951 433.887 351.301 433.887 350.504ZM461.432 353H443.889V349.52L452.168 340.695C453.305 339.453 454.143 338.369 454.682 337.443C455.232 336.518 455.508 335.639 455.508 334.807C455.508 333.67 455.221 332.779 454.646 332.135C454.072 331.479 453.252 331.15 452.186 331.15C451.037 331.15 450.129 331.549 449.461 332.346C448.805 333.131 448.477 334.168 448.477 335.457H443.379C443.379 333.898 443.748 332.475 444.486 331.186C445.236 329.896 446.291 328.889 447.65 328.162C449.01 327.424 450.551 327.055 452.273 327.055C454.91 327.055 456.955 327.688 458.408 328.953C459.873 330.219 460.605 332.006 460.605 334.314C460.605 335.58 460.277 336.869 459.621 338.182C458.965 339.494 457.84 341.023 456.246 342.77L450.428 348.904H461.432V353Z" fill="white"/>
<ellipse cx="644.5" cy="257" rx="58.5" ry="48" fill="#17252A"/>
<path d="M1137.28 380H1119.74V376.52L1128.02 367.695C1129.16 366.453 1129.99 365.369 1130.53 364.443C1131.08 363.518 1131.36 362.639 1131.36 361.807C1131.36 360.67 1131.07 359.779 1130.5 359.135C1129.92 358.479 1129.1 358.15 1128.04 358.15C1126.89 358.15 1125.98 358.549 1125.31 359.346C1124.66 360.131 1124.33 361.168 1124.33 362.457H1119.23C1119.23 360.898 1119.6 359.475 1120.34 358.186C1121.09 356.896 1122.14 355.889 1123.5 355.162C1124.86 354.424 1126.4 354.055 1128.12 354.055C1130.76 354.055 1132.81 354.688 1134.26 355.953C1135.72 357.219 1136.46 359.006 1136.46 361.314C1136.46 362.58 1136.13 363.869 1135.47 365.182C1134.82 366.494 1133.69 368.023 1132.1 369.77L1126.28 375.904H1137.28V380ZM1140.89 377.504C1140.89 376.695 1141.16 376.039 1141.7 375.535C1142.25 375.031 1142.93 374.779 1143.75 374.779C1144.58 374.779 1145.27 375.031 1145.81 375.535C1146.36 376.039 1146.63 376.695 1146.63 377.504C1146.63 378.301 1146.37 378.951 1145.83 379.455C1145.29 379.947 1144.6 380.193 1143.75 380.193C1142.92 380.193 1142.23 379.947 1141.7 379.455C1141.16 378.951 1140.89 378.301 1140.89 377.504ZM1168.43 380H1150.89V376.52L1159.17 367.695C1160.3 366.453 1161.14 365.369 1161.68 364.443C1162.23 363.518 1162.51 362.639 1162.51 361.807C1162.51 360.67 1162.22 359.779 1161.65 359.135C1161.07 358.479 1160.25 358.15 1159.19 358.15C1158.04 358.15 1157.13 358.549 1156.46 359.346C1155.8 360.131 1155.48 361.168 1155.48 362.457H1150.38C1150.38 360.898 1150.75 359.475 1151.49 358.186C1152.24 356.896 1153.29 355.889 1154.65 355.162C1156.01 354.424 1157.55 354.055 1159.27 354.055C1161.91 354.055 1163.96 354.688 1165.41 355.953C1166.87 357.219 1167.61 359.006 1167.61 361.314C1167.61 362.58 1167.28 363.869 1166.62 365.182C1165.96 366.494 1164.84 368.023 1163.25 369.77L1157.43 375.904H1168.43V380Z" fill="white"/>
<path d="M217.08 257H212V237.418L205.936 239.299V235.168L216.535 231.371H217.08V257ZM225.887 254.504C225.887 253.695 226.156 253.039 226.695 252.535C227.246 252.031 227.932 251.779 228.752 251.779C229.584 251.779 230.27 252.031 230.809 252.535C231.359 253.039 231.635 253.695 231.635 254.504C231.635 255.301 231.365 255.951 230.826 256.455C230.287 256.947 229.596 257.193 228.752 257.193C227.92 257.193 227.234 256.947 226.695 256.455C226.156 255.951 225.887 255.301 225.887 254.504ZM248.229 257H243.148V237.418L237.084 239.299V235.168L247.684 231.371H248.229V257Z" fill="white"/>
<path d="M633.08 269H628V249.418L621.936 251.299V247.168L632.535 243.371H633.08V269ZM641.887 266.504C641.887 265.695 642.156 265.039 642.695 264.535C643.246 264.031 643.932 263.779 644.752 263.779C645.584 263.779 646.27 264.031 646.809 264.535C647.359 265.039 647.635 265.695 647.635 266.504C647.635 267.301 647.365 267.951 646.826 268.455C646.287 268.947 645.596 269.193 644.752 269.193C643.92 269.193 643.234 268.947 642.695 268.455C642.156 267.951 641.887 267.301 641.887 266.504ZM657.057 253.953H659.764C661.053 253.953 662.008 253.631 662.629 252.986C663.25 252.342 663.561 251.486 663.561 250.42C663.561 249.389 663.25 248.586 662.629 248.012C662.02 247.438 661.176 247.15 660.098 247.15C659.125 247.15 658.311 247.42 657.654 247.959C656.998 248.486 656.67 249.178 656.67 250.033H651.59C651.59 248.697 651.947 247.502 652.662 246.447C653.389 245.381 654.396 244.549 655.686 243.951C656.986 243.354 658.416 243.055 659.975 243.055C662.682 243.055 664.803 243.705 666.338 245.006C667.873 246.295 668.641 248.076 668.641 250.35C668.641 251.521 668.283 252.6 667.568 253.584C666.854 254.568 665.916 255.324 664.756 255.852C666.197 256.367 667.27 257.141 667.973 258.172C668.688 259.203 669.045 260.422 669.045 261.828C669.045 264.102 668.213 265.924 666.549 267.295C664.896 268.666 662.705 269.352 659.975 269.352C657.42 269.352 655.328 268.678 653.699 267.33C652.082 265.982 651.273 264.201 651.273 261.986H656.354C656.354 262.947 656.711 263.732 657.426 264.342C658.152 264.951 659.043 265.256 660.098 265.256C661.305 265.256 662.248 264.939 662.928 264.307C663.619 263.662 663.965 262.812 663.965 261.758C663.965 259.203 662.559 257.926 659.746 257.926H657.057V253.953Z" fill="white"/>
<line x1="115.805" y1="326.154" x2="180.805" y2="272.154" stroke="black" stroke-width="10"/>
<line x1="280.595" y1="259.726" x2="392.595" y2="327.726" stroke="black" stroke-width="10"/>
<line x1="483.883" y1="321.47" x2="590.883" y2="271.47" stroke="black" stroke-width="10"/>
<g style="mix-blend-mode:multiply">
<path d="M677 224L744 144" stroke="black" stroke-width="10" stroke-dasharray="20 20"/>
</g>
</svg>
